<svg width="192" height="32" viewBox="0 0 192 32" fill="none" xmlns="http://www.w3.org/2000/svg">
<path d="M16.0059 23.9724L22.9769 22.1116L25.9021 31.3795L16.0059 23.9724ZM32 11.9923H19.7804L16.0059 0L12.2315 11.9923L0 11.9802L9.89608 19.3872L6.12165 31.3795L16.0059 23.9724L22.1157 19.3993L32 11.9923Z" fill="#04DA8D">
                                    <animate attributeName="fill" values="#04DA8D;#FFE500;#FE7A1A;#F95A93;#FE7A1A;#FFE500;#04DA8D" begin="0s" dur="8s" repeatCount="indefinite" calcMode="linear" keyTimes="0;0.067;0.25;0.5;0.75;0.933;1"/></path>
<path d="M41.792 31.3795C39.92 31.3795 38.24 30.9715 36.752 30.1555C35.264 29.3395 34.096 28.1875 33.248 26.6995C32.416 25.1955 32 23.4675 32 21.5155C32 19.4835 32.448 17.7395 33.344 16.2835C34.256 14.8275 35.44 13.7315 36.896 12.9955C38.368 12.2435 39.936 11.8675 41.6 11.8675C43.664 11.8675 45.464 12.4195 47 13.5235C48.536 14.6275 49.64 16.0835 50.312 17.8915L46.352 19.4755C45.328 17.0755 43.72 15.8755 41.528 15.8755C40.536 15.8755 39.656 16.1155 38.888 16.5955C38.12 17.0755 37.52 17.7635 37.088 18.6595C36.656 19.5395 36.44 20.5635 36.44 21.7315C36.44 23.0595 36.704 24.1475 37.232 24.9955C37.776 25.8275 38.448 26.4355 39.248 26.8195C40.064 27.1875 40.912 27.3715 41.792 27.3715C42.96 27.3715 43.992 27.0355 44.888 26.3635C45.8 25.6755 46.488 24.6435 46.952 23.2675L50.912 24.6115C50.144 26.9635 48.952 28.6835 47.336 29.7715C45.72 30.8435 43.872 31.3795 41.792 31.3795Z" fill="#F1F1E8"/>
<path d="M58.403 31.3795C57.027 31.3795 55.803 31.0835 54.731 30.4915C53.675 29.8835 52.851 29.0435 52.259 27.9715C51.667 26.8835 51.371 25.6515 51.371 24.2755C51.371 22.8995 51.667 21.6755 52.259 20.6035C52.851 19.5155 53.683 18.6675 54.755 18.0595C55.827 17.4515 57.043 17.1475 58.403 17.1475C59.763 17.1475 60.971 17.4515 62.027 18.0595C63.099 18.6675 63.931 19.5155 64.523 20.6035C65.115 21.6755 65.411 22.8995 65.411 24.2755C65.411 25.6515 65.115 26.8835 64.523 27.9715C63.931 29.0435 63.099 29.8835 62.027 30.4915C60.971 31.0835 59.763 31.3795 58.403 31.3795ZM55.523 24.2755C55.523 25.2355 55.787 26.0195 56.315 26.6275C56.859 27.2355 57.555 27.5395 58.403 27.5395C59.235 27.5395 59.915 27.2355 60.443 26.6275C60.987 26.0035 61.259 25.2195 61.259 24.2755C61.259 23.2995 60.995 22.5075 60.467 21.8995C59.939 21.2915 59.251 20.9875 58.403 20.9875C57.555 20.9875 56.859 21.2995 56.315 21.9235C55.787 22.5315 55.523 23.3155 55.523 24.2755Z" fill="#F1F1E8"/>
<path d="M67.2009 17.5315H71.1609C71.1609 18.3155 71.1209 18.9635 71.0409 19.4755H71.2089C71.6729 18.6915 72.2489 18.1075 72.9369 17.7235C73.6409 17.3395 74.3929 17.1475 75.1929 17.1475C76.0409 17.1475 76.8169 17.3555 77.5209 17.7715C78.2249 18.1715 78.7769 18.7715 79.1769 19.5715C79.5929 20.3715 79.8009 21.3395 79.8009 22.4755V30.9715H75.7929V24.2515C75.7929 23.6595 75.7529 23.1395 75.6729 22.6915C75.6089 22.2435 75.4169 21.8515 75.0969 21.5155C74.7929 21.1635 74.3209 20.9875 73.6809 20.9875C72.9929 20.9875 72.4089 21.2355 71.9289 21.7315C71.4489 22.2115 71.2089 23.0515 71.2089 24.2515V30.9715H67.2009V17.5315Z" fill="#F1F1E8"/>
<path d="M87.1833 31.3795C85.5993 31.3795 84.2793 31.0435 83.2233 30.3715C82.1833 29.6835 81.5113 28.7555 81.2073 27.5875L84.9273 26.3875C85.3913 27.5395 86.1273 28.1155 87.1353 28.1155C87.5033 28.1155 87.8073 28.0435 88.0473 27.8995C88.3033 27.7555 88.4313 27.5395 88.4313 27.2515C88.4313 26.9315 88.2953 26.6915 88.0233 26.5315C87.7513 26.3555 87.3673 26.1875 86.8713 26.0275L85.3833 25.5715C83.0153 24.8515 81.8313 23.5075 81.8313 21.5395C81.8313 20.6755 82.0473 19.9155 82.4793 19.2595C82.9273 18.5875 83.5513 18.0675 84.3513 17.6995C85.1513 17.3315 86.0713 17.1475 87.1113 17.1475C88.4873 17.1475 89.6393 17.4675 90.5673 18.1075C91.4953 18.7315 92.1033 19.5555 92.3913 20.5795L88.7193 21.7795C88.3833 20.8355 87.8233 20.3635 87.0393 20.3635C86.6873 20.3635 86.3993 20.4515 86.1753 20.6275C85.9513 20.7875 85.8393 21.0035 85.8393 21.2755C85.8393 21.5955 86.0153 21.8435 86.3673 22.0195C86.7193 22.1955 87.2393 22.3875 87.9273 22.5955L88.8633 22.8595C89.5353 23.0515 90.1273 23.2755 90.6393 23.5315C91.1673 23.7715 91.6393 24.1715 92.0553 24.7315C92.4873 25.2755 92.7033 26.0035 92.7033 26.9155C92.7033 28.3075 92.2073 29.4035 91.2153 30.2035C90.2233 30.9875 88.8793 31.3795 87.1833 31.3795Z" fill="#F1F1E8"/>
<path d="M100.686 31.3795C99.1823 31.3795 98.0623 31.0995 97.3263 30.5395C96.6063 29.9795 96.1583 29.3715 95.9823 28.7155C95.8063 28.0595 95.7183 27.3555 95.7183 26.6035C95.7183 24.1875 95.7663 22.3475 95.8623 21.0835C95.1743 21.1475 94.2463 21.1795 93.0783 21.1795V17.5315C94.2463 17.5315 95.1743 17.5635 95.8623 17.6275C95.7663 16.7315 95.7183 15.4515 95.7183 13.7875H99.7263C99.7263 15.4515 99.6783 16.7315 99.5823 17.6275C100.446 17.5635 101.646 17.5315 103.182 17.5315V21.1795C101.646 21.1795 100.446 21.1475 99.5823 21.0835C99.6783 22.0275 99.7263 23.3715 99.7263 25.1155C99.7263 25.6595 99.7503 26.1075 99.7983 26.4595C99.8623 26.7955 100.022 27.0915 100.278 27.3475C100.55 27.6035 100.966 27.7315 101.526 27.7315C102.006 27.7315 102.558 27.6115 103.182 27.3715V30.9235C102.574 31.2275 101.742 31.3795 100.686 31.3795Z" fill="#F1F1E8"/>
<path d="M111.223 31.3795C109.879 31.3795 108.662 31.0915 107.575 30.5155C106.503 29.9235 105.655 29.0995 105.031 28.0435C104.423 26.9715 104.118 25.7315 104.118 24.3235C104.118 22.9635 104.407 21.7395 104.982 20.6515C105.558 19.5635 106.358 18.7075 107.382 18.0835C108.423 17.4595 109.599 17.1475 110.91 17.1475C112.143 17.1475 113.255 17.4355 114.246 18.0115C115.255 18.5715 116.046 19.4035 116.622 20.5075C117.215 21.6115 117.51 22.9315 117.51 24.4675L117.51 25.4035L108.103 25.4035C108.279 26.1875 108.646 26.7795 109.206 27.1795C109.782 27.5795 110.438 27.7795 111.174 27.7795C111.718 27.7795 112.215 27.6435 112.662 27.3715C113.126 27.0995 113.487 26.6755 113.743 26.0995L117.51 27.6355C117.062 28.7075 116.279 29.6035 115.159 30.3235C114.055 31.0275 112.743 31.3795 111.223 31.3795ZM113.503 22.7875C113.359 22.0355 113.054 21.4755 112.59 21.1075C112.143 20.7395 111.574 20.5555 110.886 20.5555C110.215 20.5555 109.654 20.7555 109.206 21.1555C108.774 21.5555 108.471 22.0995 108.295 22.7875L113.503 22.7875Z" fill="#F1F1E8">
                                    <animate attributeName="d" values="M111.223 31.3795C109.879 31.3795 108.662 31.0915 107.575 30.5155C106.503 29.9235 105.655 29.0995 105.031 28.0435C104.423 26.9715 104.118 25.7315 104.118 24.3235C104.118 22.9635 104.407 21.7395 104.982 20.6515C105.558 19.5635 106.358 18.7075 107.382 18.0835C108.423 17.4595 109.599 17.1475 110.91 17.1475C112.143 17.1475 113.255 17.4355 114.246 18.0115C115.255 18.5715 116.046 19.4035 116.622 20.5075C117.215 21.6115 117.51 22.9315 117.51 24.4675L117.51 25.4035L108.103 25.4035C108.279 26.1875 108.646 26.7795 109.206 27.1795C109.782 27.5795 110.438 27.7795 111.174 27.7795C111.718 27.7795 112.215 27.6435 112.662 27.3715C113.126 27.0995 113.487 26.6755 113.743 26.0995L117.51 27.6355C117.062 28.7075 116.279 29.6035 115.159 30.3235C114.055 31.0275 112.743 31.3795 111.223 31.3795ZM113.503 22.7875C113.359 22.0355 113.054 21.4755 112.59 21.1075C112.143 20.7395 111.574 20.5555 110.886 20.5555C110.215 20.5555 109.654 20.7555 109.206 21.1555C108.774 21.5555 108.471 22.0995 108.295 22.7875L113.503 22.7875Z;M111.223 31.3795C109.879 31.3795 108.663 31.0915 107.575 30.5155C106.503 29.9235 105.655 29.0995 105.031 28.0435C104.423 26.9715 104.118 25.7315 104.118 24.3235C104.118 22.9635 104.406 21.7395 104.982 20.6515C105.558 19.5635 106.358 18.7075 107.382 18.0835C108.422 17.4595 109.598 17.1475 110.91 17.1475C112.142 17.1475 113.254 17.4355 114.246 18.0115C115.254 18.5715 116.046 19.4035 116.622 20.5075C117.214 21.6115 117.51 22.9315 117.51 24.4675L117.51 25.4035L108.103 25.4035C108.279 26.1875 108.646 26.7795 109.206 27.1795C109.782 27.5795 110.438 27.7795 111.174 27.7795C111.718 27.7795 112.214 27.6435 112.662 27.3715C113.126 27.0995 113.487 26.6755 113.743 26.0995L117.51 27.6355C117.062 28.7075 116.279 29.6035 115.159 30.3235C114.055 31.0275 112.743 31.3795 111.223 31.3795ZM113.503 22.7875C113.359 22.0355 113.054 21.4755 112.59 21.1075C112.142 20.7395 111.574 20.5555 110.886 20.5555C110.214 20.5555 109.654 20.7555 109.206 21.1555C108.774 21.5555 108.471 22.0995 108.295 22.7875L113.503 22.7875Z;M111.223 31.3795C109.879 31.3795 108.663 31.0915 107.575 30.5155C106.503 29.9235 105.655 29.0995 105.031 28.0435C104.423 26.9715 104.118 25.7315 104.118 24.3235C104.118 22.9635 104.406 21.7395 104.982 20.6515C105.558 19.5635 106.358 18.7075 107.382 18.0835C108.422 17.4595 109.598 17.1475 110.91 17.1475C112.142 17.1475 113.254 17.4355 114.246 18.0115C115.254 18.5715 116.046 19.4035 116.622 20.5075C117.214 21.6115 117.51 22.9315 117.51 24.4675L117.51 25.4035L108.103 25.4035C108.279 26.1875 108.646 26.7795 109.206 27.1795C109.782 27.5795 110.438 27.7795 111.174 27.7795C111.718 27.7795 112.214 27.6435 112.662 27.3715C113.126 27.0995 113.487 26.6755 113.743 26.0995L117.51 27.6355C117.062 28.7075 116.279 29.6035 115.159 30.3235C114.055 31.0275 112.743 31.3795 111.223 31.3795ZM113.503 22.7875C113.359 22.0355 113.054 21.4755 112.59 21.1075C112.142 20.7395 111.574 20.5555 110.886 20.5555C110.214 20.5555 109.654 20.7555 109.206 21.1555C108.774 21.5555 108.471 22.0995 108.295 22.7875L113.503 22.7875Z;M111.223 31.3795C109.879 31.3795 108.663 31.0915 107.575 30.5155C106.503 29.9235 105.655 29.0995 105.031 28.0435C104.423 26.9715 104.118 25.7315 104.118 24.3235C104.118 22.9635 104.406 21.7395 104.982 20.6515C105.558 19.5635 106.358 18.7075 107.382 18.0835C108.422 17.4595 109.598 17.1475 110.91 17.1475C112.142 17.1475 113.254 17.4355 114.246 18.0115C115.254 18.5715 116.046 19.4035 116.622 20.5075C117.214 21.6115 117.51 22.9315 117.51 24.4675L117.51 25.4035L108.103 25.4035C108.279 26.1875 108.646 26.7795 109.206 27.1795C109.782 27.5795 110.438 27.7795 111.174 27.7795C111.718 27.7795 112.214 27.6435 112.662 27.3715C113.126 27.0995 113.487 26.6755 113.743 26.0995L117.51 27.6355C117.062 28.7075 116.279 29.6035 115.159 30.3235C114.055 31.0275 112.743 31.3795 111.223 31.3795ZM113.503 22.7875C113.359 22.0355 113.054 21.4755 112.59 21.1075C112.142 20.7395 111.574 20.5555 110.886 20.5555C110.214 20.5555 109.654 20.7555 109.206 21.1555C108.774 21.5555 108.471 22.0995 108.295 22.7875L113.503 22.7875Z;M111.223 31.3795C109.879 31.3795 108.663 31.0915 107.575 30.5155C106.503 29.9235 105.655 29.0995 105.031 28.0435C104.423 26.9715 104.118 25.7315 104.118 24.3235C104.118 22.9635 104.406 21.7395 104.982 20.6515C105.558 19.5635 106.358 18.7075 107.382 18.0835C108.422 17.4595 109.598 17.1475 110.91 17.1475C112.142 17.1475 113.254 17.4355 114.246 18.0115C115.254 18.5715 116.046 19.4035 116.622 20.5075C117.214 21.6115 117.51 22.9315 117.51 24.4675L117.51 25.4035L108.103 25.4035C108.279 26.1875 108.646 26.7795 109.206 27.1795C109.782 27.5795 110.438 27.7795 111.174 27.7795C111.718 27.7795 112.214 27.6435 112.662 27.3715C113.126 27.0995 113.487 26.6755 113.743 26.0995L117.51 27.6355C117.062 28.7075 116.279 29.6035 115.159 30.3235C114.055 31.0275 112.743 31.3795 111.223 31.3795ZM113.503 22.7875C113.359 22.0355 113.054 21.4755 112.59 21.1075C112.142 20.7395 111.574 20.5555 110.886 20.5555C110.214 20.5555 109.654 20.7555 109.206 21.1555C108.774 21.5555 108.471 22.0995 108.295 22.7875L113.503 22.7875Z;M111.223 31.3795C109.879 31.3795 108.663 31.0915 107.575 30.5155C106.503 29.9235 105.655 29.0995 105.031 28.0435C104.423 26.9715 104.118 25.7315 104.118 24.3235C104.118 22.9635 104.406 21.7395 104.982 20.6515C105.558 19.5635 106.358 18.7075 107.382 18.0835C108.422 17.4595 109.598 17.1475 110.91 17.1475C112.142 17.1475 113.254 17.4355 114.246 18.0115C115.254 18.5715 116.046 19.4035 116.622 20.5075C117.214 21.6115 117.51 22.9315 117.51 24.4675L117.51 25.4035L108.103 25.4035C108.279 26.1875 108.646 26.7795 109.206 27.1795C109.782 27.5795 110.438 27.7795 111.174 27.7795C111.718 27.7795 112.214 27.6435 112.662 27.3715C113.126 27.0995 113.487 26.6755 113.743 26.0995L117.51 27.6355C117.062 28.7075 116.279 29.6035 115.159 30.3235C114.055 31.0275 112.743 31.3795 111.223 31.3795ZM113.503 22.7875C113.359 22.0355 113.054 21.4755 112.59 21.1075C112.142 20.7395 111.574 20.5555 110.886 20.5555C110.214 20.5555 109.654 20.7555 109.206 21.1555C108.774 21.5555 108.471 22.0995 108.295 22.7875L113.503 22.7875Z;M111.223 31.3795C109.879 31.3795 108.662 31.0915 107.575 30.5155C106.503 29.9235 105.655 29.0995 105.031 28.0435C104.423 26.9715 104.118 25.7315 104.118 24.3235C104.118 22.9635 104.407 21.7395 104.982 20.6515C105.558 19.5635 106.358 18.7075 107.382 18.0835C108.423 17.4595 109.599 17.1475 110.91 17.1475C112.143 17.1475 113.255 17.4355 114.246 18.0115C115.255 18.5715 116.046 19.4035 116.622 20.5075C117.215 21.6115 117.51 22.9315 117.51 24.4675L117.51 25.4035L108.103 25.4035C108.279 26.1875 108.646 26.7795 109.206 27.1795C109.782 27.5795 110.438 27.7795 111.174 27.7795C111.718 27.7795 112.215 27.6435 112.662 27.3715C113.126 27.0995 113.487 26.6755 113.743 26.0995L117.51 27.6355C117.062 28.7075 116.279 29.6035 115.159 30.3235C114.055 31.0275 112.743 31.3795 111.223 31.3795ZM113.503 22.7875C113.359 22.0355 113.054 21.4755 112.59 21.1075C112.143 20.7395 111.574 20.5555 110.886 20.5555C110.215 20.5555 109.654 20.7555 109.206 21.1555C108.774 21.5555 108.471 22.0995 108.295 22.7875L113.503 22.7875Z" begin="0s" dur="8s" repeatCount="indefinite" calcMode="linear" keyTimes="0;0.067;0.25;0.5;0.75;0.933;1"/></path>
<path d="M119.362 11.7715H123.37V30.9715H119.362V11.7715Z" fill="#F1F1E8"/>
<path d="M125.94 11.7715H129.948V30.9715H125.94V11.7715Z" fill="#F1F1E8"/>
<path d="M136.333 31.3795C135.533 31.3795 134.781 31.2275 134.077 30.9235C133.373 30.6195 132.805 30.1635 132.373 29.5555C131.941 28.9315 131.725 28.1795 131.725 27.2995C131.725 26.1475 132.093 25.2675 132.829 24.6595C133.581 24.0355 134.597 23.5875 135.877 23.3155C137.157 23.0435 138.021 22.8515 138.469 22.7395C138.933 22.6115 139.261 22.4755 139.453 22.3315C139.661 22.1715 139.765 21.9555 139.765 21.6835C139.765 21.2835 139.613 20.9715 139.309 20.7475C139.005 20.5075 138.597 20.3875 138.085 20.3875C137.573 20.3875 137.117 20.5395 136.717 20.8435C136.317 21.1315 136.021 21.6035 135.829 22.2595L132.109 21.0115C132.509 19.6515 133.253 18.6675 134.341 18.0595C135.445 17.4515 136.741 17.1475 138.229 17.1475C140.037 17.1475 141.413 17.5715 142.357 18.4195C143.317 19.2515 143.797 20.4515 143.797 22.0195V26.7715C143.797 27.7795 143.829 28.5875 143.893 29.1955C143.973 29.7875 144.085 30.3795 144.229 30.9715H140.245C140.133 30.6675 140.077 30.3635 140.077 30.0595C140.077 29.8515 140.101 29.6195 140.149 29.3635H139.981C139.661 30.0195 139.165 30.5235 138.493 30.8755C137.837 31.2115 137.117 31.3795 136.333 31.3795ZM136.117 27.1795C136.117 27.5635 136.245 27.8515 136.501 28.0435C136.773 28.2355 137.125 28.3315 137.557 28.3315C138.229 28.3315 138.765 28.1075 139.165 27.6595C139.581 27.2115 139.789 26.6675 139.789 26.0275V25.2115L138.013 25.6675L137.365 25.8355C136.533 26.0595 136.117 26.5075 136.117 27.1795Z" fill="#F1F1E8"/>
<path d="M152.582 31.3795C151.078 31.3795 149.958 31.0995 149.222 30.5395C148.502 29.9795 148.054 29.3715 147.878 28.7155C147.702 28.0595 147.614 27.3555 147.614 26.6035C147.614 24.1875 147.662 22.3475 147.758 21.0835C147.07 21.1475 146.142 21.1795 144.974 21.1795V17.5315C146.142 17.5315 147.07 17.5635 147.758 17.6275C147.662 16.7315 147.614 15.4515 147.614 13.7875H151.622C151.622 15.4515 151.574 16.7315 151.478 17.6275C152.342 17.5635 153.542 17.5315 155.078 17.5315V21.1795C153.542 21.1795 152.342 21.1475 151.478 21.0835C151.574 22.0275 151.622 23.3715 151.622 25.1155C151.622 25.6595 151.646 26.1075 151.694 26.4595C151.758 26.7955 151.918 27.0915 152.174 27.3475C152.446 27.6035 152.862 27.7315 153.422 27.7315C153.902 27.7315 154.454 27.6115 155.078 27.3715V30.9235C154.47 31.2275 153.638 31.3795 152.582 31.3795Z" fill="#F1F1E8"/>
<path d="M156.922 17.5315H160.93V30.9715H156.922V17.5315ZM158.962 16.2355C158.29 16.2355 157.722 16.0035 157.258 15.5395C156.81 15.0755 156.586 14.5075 156.586 13.8355C156.586 13.1955 156.81 12.6515 157.258 12.2035C157.722 11.7555 158.29 11.5315 158.962 11.5315C159.618 11.5315 160.17 11.7635 160.618 12.2275C161.066 12.6755 161.29 13.2115 161.29 13.8355C161.29 14.5075 161.066 15.0755 160.618 15.5395C160.17 16.0035 159.618 16.2355 158.962 16.2355Z" fill="#F1F1E8"/>
<path d="M169.764 31.3795C168.388 31.3795 167.164 31.0835 166.092 30.4915C165.036 29.8835 164.212 29.0435 163.62 27.9715C163.028 26.8835 162.732 25.6515 162.732 24.2755C162.732 22.8995 163.028 21.6755 163.62 20.6035C164.212 19.5155 165.044 18.6675 166.116 18.0595C167.188 17.4515 168.404 17.1475 169.764 17.1475C171.124 17.1475 172.332 17.4515 173.388 18.0595C174.46 18.6675 175.292 19.5155 175.884 20.6035C176.476 21.6755 176.772 22.8995 176.772 24.2755C176.772 25.6515 176.476 26.8835 175.884 27.9715C175.292 29.0435 174.46 29.8835 173.388 30.4915C172.332 31.0835 171.124 31.3795 169.764 31.3795ZM166.884 24.2755C166.884 25.2355 167.148 26.0195 167.676 26.6275C168.22 27.2355 168.916 27.5395 169.764 27.5395C170.596 27.5395 171.276 27.2355 171.804 26.6275C172.348 26.0035 172.62 25.2195 172.62 24.2755C172.62 23.2995 172.356 22.5075 171.828 21.8995C171.3 21.2915 170.612 20.9875 169.764 20.9875C168.916 20.9875 168.22 21.2995 167.676 21.9235C167.148 22.5315 166.884 23.3155 166.884 24.2755Z" fill="#F1F1E8"/>
<path d="M178.562 17.5315H182.522C182.522 18.3155 182.482 18.9635 182.402 19.4755H182.57C183.034 18.6915 183.61 18.1075 184.298 17.7235C185.002 17.3395 185.754 17.1475 186.554 17.1475C187.402 17.1475 188.178 17.3555 188.882 17.7715C189.586 18.1715 190.138 18.7715 190.538 19.5715C190.954 20.3715 191.162 21.3395 191.162 22.4755V30.9715H187.154V24.2515C187.154 23.6595 187.114 23.1395 187.034 22.6915C186.97 22.2435 186.778 21.8515 186.458 21.5155C186.154 21.1635 185.682 20.9875 185.042 20.9875C184.354 20.9875 183.77 21.2355 183.29 21.7315C182.81 22.2115 182.57 23.0515 182.57 24.2515V30.9715H178.562V17.5315Z" fill="#F1F1E8"/>
</svg>